<?xml version="1.0" encoding="UTF-8"?>
<svg width="653px" height="176px" viewBox="0 0 653 176" version="1.1" xmlns="http://www.w3.org/2000/svg" xmlns:xlink="http://www.w3.org/1999/xlink">
    <title>Group 24</title>
    <defs>
        <polygon id="path-1" points="-1.42108547e-14 0 122.222 0 122.222 122.2207 -1.42108547e-14 122.2207"></polygon>
    </defs>
    <g id="🍉--iPad-Landscape" stroke="none" stroke-width="1" fill="none" fill-rule="evenodd">
        <g id="Group-24">
            <path d="M229.561251,111.865 L245.871251,111.865 C249.387251,111.865 252.056251,110.905 253.879251,108.984 C255.701251,107.064 256.613251,104.736 256.613251,102.002 C256.613251,99.136 255.686251,96.761 253.830251,94.872 C251.975251,92.984 249.321251,92.04 245.871251,92.04 L229.561251,92.04 L229.561251,111.865 Z M229.561251,81.883 L244.894251,81.883 C248.344251,81.883 250.932251,81.053 252.658251,79.392 C254.382251,77.732 255.246251,75.568 255.246251,72.898 C255.246251,70.164 254.382251,68.031 252.658251,66.502 C250.932251,64.972 248.344251,64.206 244.894251,64.206 L229.561251,64.206 L229.561251,81.883 Z M218.330251,122.217 C217.679251,122.217 217.124251,121.99 216.670251,121.533 C216.214251,121.079 215.986251,120.525 215.986251,119.873 L215.986251,56.296 C215.986251,55.58 216.214251,54.994 216.670251,54.537 C217.124251,54.083 217.679251,53.853 218.330251,53.853 L246.652251,53.853 C251.926251,53.853 256.223251,54.652 259.543251,56.247 C262.864251,57.844 265.321251,60.041 266.917251,62.839 C268.511251,65.638 269.310251,68.894 269.310251,72.605 C269.310251,75.08 268.870251,77.244 267.991251,79.099 C267.112251,80.955 266.038251,82.469 264.768251,83.64 C263.498251,84.812 262.244251,85.725 261.008251,86.375 C263.547251,87.547 265.793251,89.5 267.747251,92.235 C269.700251,94.969 270.677251,98.226 270.677251,102.002 C270.677251,105.908 269.798251,109.391 268.040251,112.451 C266.282251,115.511 263.677251,117.904 260.227251,119.629 C256.775251,121.355 252.512251,122.217 247.433251,122.217 L218.330251,122.217 Z" id="Fill-1" fill="#414042"></path>
            <path d="M304.272651,113.5252 C307.722651,113.5252 310.391651,112.4352 312.280651,110.2542 C314.168651,108.0732 315.210651,104.8672 315.406651,100.6342 C315.470651,99.6572 315.503651,98.3872 315.503651,96.8252 C315.503651,95.2622 315.470651,93.9932 315.406651,93.0162 C315.210651,88.8502 314.168651,85.6602 312.280651,83.4452 C310.391651,81.2322 307.722651,80.1252 304.272651,80.1252 C300.820651,80.1252 298.151651,81.2322 296.264651,83.4452 C294.375651,85.6602 293.334651,88.8502 293.139651,93.0162 C293.073651,93.9932 293.041651,95.2622 293.041651,96.8252 C293.041651,98.3872 293.073651,99.6572 293.139651,100.6342 C293.334651,104.8672 294.375651,108.0732 296.264651,110.2542 C298.151651,112.4352 300.820651,113.5252 304.272651,113.5252 M304.272651,123.1932 C299.063651,123.1932 294.685651,122.2812 291.137651,120.4592 C287.587651,118.6362 284.886651,116.0642 283.031651,112.7442 C281.175651,109.4232 280.116651,105.5502 279.857651,101.1232 C279.791651,99.9502 279.759651,98.5192 279.759651,96.8252 C279.759651,95.1322 279.791651,93.7002 279.857651,92.5282 C280.116651,88.0352 281.207651,84.1462 283.128651,80.8572 C285.048651,77.5702 287.783651,75.0142 291.332651,73.1912 C294.880651,71.3692 299.194651,70.4572 304.272651,70.4572 C309.351651,70.4572 313.663651,71.3692 317.212651,73.1912 C320.760651,75.0142 323.495651,77.5702 325.416651,80.8572 C327.335651,84.1462 328.427651,88.0352 328.688651,92.5282 C328.751651,93.7002 328.785651,95.1322 328.785651,96.8252 C328.785651,98.5192 328.751651,99.9502 328.688651,101.1232 C328.427651,105.5502 327.369651,109.4232 325.514651,112.7442 C323.658651,116.0642 320.956651,118.6362 317.408651,120.4592 C313.858651,122.2812 309.480651,123.1932 304.272651,123.1932" id="Fill-3" fill="#414042"></path>
            <path d="M362.088051,113.5252 C365.538051,113.5252 368.207051,112.4352 370.096051,110.2542 C371.984051,108.0732 373.026051,104.8672 373.222051,100.6342 C373.286051,99.6572 373.319051,98.3872 373.319051,96.8252 C373.319051,95.2622 373.286051,93.9932 373.222051,93.0162 C373.026051,88.8502 371.984051,85.6602 370.096051,83.4452 C368.207051,81.2322 365.538051,80.1252 362.088051,80.1252 C358.636051,80.1252 355.967051,81.2322 354.080051,83.4452 C352.191051,85.6602 351.150051,88.8502 350.955051,93.0162 C350.889051,93.9932 350.857051,95.2622 350.857051,96.8252 C350.857051,98.3872 350.889051,99.6572 350.955051,100.6342 C351.150051,104.8672 352.191051,108.0732 354.080051,110.2542 C355.967051,112.4352 358.636051,113.5252 362.088051,113.5252 M362.088051,123.1932 C356.879051,123.1932 352.501051,122.2812 348.953051,120.4592 C345.403051,118.6362 342.702051,116.0642 340.847051,112.7442 C338.991051,109.4232 337.932051,105.5502 337.673051,101.1232 C337.607051,99.9502 337.575051,98.5192 337.575051,96.8252 C337.575051,95.1322 337.607051,93.7002 337.673051,92.5282 C337.932051,88.0352 339.023051,84.1462 340.944051,80.8572 C342.864051,77.5702 345.599051,75.0142 349.148051,73.1912 C352.696051,71.3692 357.010051,70.4572 362.088051,70.4572 C367.167051,70.4572 371.479051,71.3692 375.028051,73.1912 C378.576051,75.0142 381.311051,77.5702 383.232051,80.8572 C385.151051,84.1462 386.243051,88.0352 386.504051,92.5282 C386.567051,93.7002 386.601051,95.1322 386.601051,96.8252 C386.601051,98.5192 386.567051,99.9502 386.504051,101.1232 C386.243051,105.5502 385.185051,109.4232 383.330051,112.7442 C381.474051,116.0642 378.772051,118.6362 375.224051,120.4592 C371.674051,122.2812 367.296051,123.1932 362.088051,123.1932" id="Fill-5" fill="#414042"></path>
            <path d="M399.883451,122.2166 C399.232451,122.2166 398.677451,121.9896 398.223451,121.5326 C397.766451,121.0786 397.539451,120.5256 397.539451,119.8726 L397.539451,55.2206 C397.539451,54.5706 397.766451,54.0176 398.223451,53.5606 C398.677451,53.1066 399.232451,52.8766 399.883451,52.8766 L407.794451,52.8766 C408.509451,52.8766 409.078451,53.1066 409.503451,53.5606 C409.925451,54.0176 410.137451,54.5706 410.137451,55.2206 L410.137451,88.6206 L426.545451,73.0936 C427.131451,72.5726 427.651451,72.1656 428.107451,71.8726 C428.562451,71.5796 429.246451,71.4336 430.158451,71.4336 L439.240451,71.4336 C439.891451,71.4336 440.413451,71.6286 440.803451,72.0196 C441.194451,72.4096 441.389451,72.9316 441.389451,73.5816 C441.389451,73.8426 441.323451,74.1356 441.194451,74.4606 C441.063451,74.7866 440.803451,75.0796 440.413451,75.3396 L420.294451,94.1886 L442.854451,118.4076 C443.504451,119.0606 443.831451,119.6126 443.831451,120.0686 C443.831451,120.7206 443.619451,121.2396 443.196451,121.6306 C442.772451,122.0216 442.268451,122.2166 441.682451,122.2166 L432.404451,122.2166 C431.428451,122.2166 430.727451,122.0706 430.304451,121.7776 C429.881451,121.4846 429.377451,121.0786 428.791451,120.5566 L410.137451,100.9276 L410.137451,119.8726 C410.137451,120.5256 409.925451,121.0786 409.503451,121.5326 C409.078451,121.9896 408.509451,122.2166 407.794451,122.2166 L399.883451,122.2166 Z" id="Fill-7" fill="#414042"></path>
            <path d="M474.106151,122.2166 C470.200151,122.2166 466.911151,121.5326 464.242151,120.1656 C461.572151,118.7986 459.586151,116.7656 458.285151,114.0626 C456.982151,111.3616 456.332151,107.9916 456.332151,103.9546 L456.332151,81.7846 L448.616151,81.7846 C447.965151,81.7846 447.411151,81.5586 446.956151,81.1016 C446.500151,80.6466 446.273151,80.0936 446.273151,79.4416 L446.273151,73.7776 C446.273151,73.1266 446.500151,72.5726 446.956151,72.1166 C447.411151,71.6616 447.965151,71.4336 448.616151,71.4336 L456.332151,71.4336 L456.332151,55.2206 C456.332151,54.5706 456.543151,54.0176 456.966151,53.5606 C457.389151,53.1066 457.959151,52.8766 458.676151,52.8766 L466.586151,52.8766 C467.236151,52.8766 467.790151,53.1066 468.247151,53.5606 C468.701151,54.0176 468.930151,54.5706 468.930151,55.2206 L468.930151,71.4336 L481.138151,71.4336 C481.788151,71.4336 482.342151,71.6616 482.798151,72.1166 C483.253151,72.5726 483.481151,73.1266 483.481151,73.7776 L483.481151,79.4416 C483.481151,80.0936 483.253151,80.6466 482.798151,81.1016 C482.342151,81.5586 481.788151,81.7846 481.138151,81.7846 L468.930151,81.7846 L468.930151,102.9786 C468.930151,105.6486 469.401151,107.7316 470.346151,109.2286 C471.289151,110.7266 472.934151,111.4746 475.278151,111.4746 L482.017151,111.4746 C482.667151,111.4746 483.221151,111.7026 483.677151,112.1576 C484.132151,112.6136 484.360151,113.1676 484.360151,113.8186 L484.360151,119.8726 C484.360151,120.5256 484.132151,121.0786 483.677151,121.5326 C483.221151,121.9896 482.667151,122.2166 482.017151,122.2166 L474.106151,122.2166 Z" id="Fill-9" fill="#414042"></path>
            <path d="M495.396651,122.2166 C494.745651,122.2166 494.190651,121.9896 493.736651,121.5326 C493.279651,121.0786 493.052651,120.5256 493.052651,119.8726 L493.052651,73.7776 C493.052651,73.1266 493.279651,72.5726 493.736651,72.1166 C494.190651,71.6616 494.745651,71.4336 495.396651,71.4336 L503.502651,71.4336 C504.218651,71.4336 504.787651,71.6616 505.211651,72.1166 C505.634651,72.5726 505.846651,73.1266 505.846651,73.7776 L505.846651,119.8726 C505.846651,120.5256 505.634651,121.0786 505.211651,121.5326 C504.787651,121.9896 504.218651,122.2166 503.502651,122.2166 L495.396651,122.2166 Z M495.005651,63.0336 C494.288651,63.0336 493.719651,62.8236 493.296651,62.3996 C492.872651,61.9766 492.662651,61.4076 492.662651,60.6906 L492.662651,53.6576 C492.662651,53.0086 492.872651,52.4546 493.296651,51.9976 C493.719651,51.5436 494.288651,51.3146 495.005651,51.3146 L503.893651,51.3146 C504.608651,51.3146 505.194651,51.5436 505.650651,51.9976 C506.105651,52.4546 506.334651,53.0086 506.334651,53.6576 L506.334651,60.6906 C506.334651,61.4076 506.105651,61.9766 505.650651,62.3996 C505.194651,62.8236 504.608651,63.0336 503.893651,63.0336 L495.005651,63.0336 Z" id="Fill-11" fill="#414042"></path>
            <path d="M521.179451,122.2166 C520.528451,122.2166 519.973451,121.9896 519.519451,121.5326 C519.062451,121.0786 518.835451,120.5256 518.835451,119.8726 L518.835451,73.7776 C518.835451,73.1266 519.062451,72.5726 519.519451,72.1166 C519.973451,71.6616 520.528451,71.4336 521.179451,71.4336 L528.797451,71.4336 C529.447451,71.4336 530.001451,71.6616 530.457451,72.1166 C530.911451,72.5726 531.140451,73.1266 531.140451,73.7776 L531.140451,77.0976 C532.508451,75.2756 534.346451,73.7286 536.658451,72.4586 C538.969451,71.1896 541.720451,70.5226 544.911451,70.4566 C552.333451,70.3266 557.509451,73.2246 560.439451,79.1486 C561.936451,76.5446 564.101451,74.4456 566.933451,72.8496 C569.765451,71.2546 572.906451,70.4566 576.358451,70.4566 C579.742451,70.4566 582.819451,71.2376 585.587451,72.8006 C588.353451,74.3626 590.534451,76.7236 592.130451,79.8806 C593.725451,83.0386 594.523451,87.0276 594.523451,91.8446 L594.523451,119.8726 C594.523451,120.5256 594.294451,121.0786 593.839451,121.5326 C593.383451,121.9896 592.829451,122.2166 592.179451,122.2166 L584.171451,122.2166 C583.519451,122.2166 582.965451,121.9896 582.511451,121.5326 C582.054451,121.0786 581.827451,120.5256 581.827451,119.8726 L581.827451,92.6256 C581.827451,89.6956 581.403451,87.3686 580.557451,85.6426 C579.710451,83.9176 578.571451,82.6966 577.139451,81.9806 C575.706451,81.2656 574.112451,80.9056 572.354451,80.9056 C570.921451,80.9056 569.488451,81.2656 568.056451,81.9806 C566.624451,82.6966 565.452451,83.9176 564.541451,85.6426 C563.628451,87.3686 563.174451,89.6956 563.174451,92.6256 L563.174451,119.8726 C563.174451,120.5256 562.945451,121.0786 562.490451,121.5326 C562.033451,121.9896 561.480451,122.2166 560.829451,122.2166 L552.822451,122.2166 C552.104451,122.2166 551.535451,121.9896 551.112451,121.5326 C550.688451,121.0786 550.477451,120.5256 550.477451,119.8726 L550.477451,92.6256 C550.477451,89.6956 550.021451,87.3686 549.110451,85.6426 C548.198451,83.9176 547.026451,82.6966 545.595451,81.9806 C544.161451,81.2656 542.631451,80.9056 541.004451,80.9056 C539.506451,80.9056 538.041451,81.2806 536.610451,82.0286 C535.177451,82.7786 534.005451,83.9996 533.094451,85.6916 C532.181451,87.3856 531.726451,89.6956 531.726451,92.6256 L531.726451,119.8726 C531.726451,120.5256 531.497451,121.0786 531.043451,121.5326 C530.587451,121.9896 530.033451,122.2166 529.383451,122.2166 L521.179451,122.2166 Z" id="Fill-13" fill="#414042"></path>
            <path d="M618.059251,92.4305 L639.642251,92.4305 L639.642251,92.1375 C639.642251,89.5975 639.218251,87.3855 638.372251,85.4955 C637.526251,83.6095 636.288251,82.1115 634.662251,81.0035 C633.033251,79.8985 631.080251,79.3435 628.802251,79.3435 C626.522251,79.3435 624.569251,79.8985 622.942251,81.0035 C621.314251,82.1115 620.093251,83.6095 619.280251,85.4955 C618.465251,87.3855 618.059251,89.5975 618.059251,92.1375 L618.059251,92.4305 Z M628.802251,123.1935 C621.575251,123.1935 615.845251,121.1115 611.613251,116.9435 C607.380251,112.7775 605.102251,106.8525 604.777251,99.1685 C604.711251,98.5195 604.679251,97.6895 604.679251,96.6785 C604.679251,95.6695 604.711251,94.8715 604.777251,94.2855 C605.037251,89.4025 606.160251,85.1715 608.146251,81.5895 C610.132251,78.0095 612.883251,75.2585 616.399251,73.3375 C619.914251,71.4175 624.048251,70.4565 628.802251,70.4565 C634.076251,70.4565 638.502251,71.5475 642.084251,73.7285 C645.663251,75.9095 648.366251,78.9375 650.190251,82.8105 C652.012251,86.6855 652.924251,91.1605 652.924251,96.2395 L652.924251,98.2895 C652.924251,98.9415 652.695251,99.4955 652.241251,99.9505 C651.784251,100.4065 651.198251,100.6345 650.483251,100.6345 L618.059251,100.6345 L618.059251,101.4155 C618.123251,103.6955 618.562251,105.7945 619.377251,107.7145 C620.191251,109.6355 621.395251,111.1815 622.991251,112.3535 C624.585251,113.5255 626.490251,114.1115 628.704251,114.1115 C630.526251,114.1115 632.057251,113.8345 633.294251,113.2815 C634.530251,112.7285 635.540251,112.0935 636.322251,111.3765 C637.103251,110.6605 637.655251,110.0755 637.982251,109.6185 C638.568251,108.8375 639.039251,108.3665 639.398251,108.2025 C639.755251,108.0405 640.292251,107.9585 641.010251,107.9585 L649.409251,107.9585 C650.059251,107.9585 650.596251,108.1545 651.020251,108.5445 C651.442251,108.9355 651.621251,109.4235 651.557251,110.0095 C651.491251,111.0515 650.954251,112.3215 649.946251,113.8185 C648.935251,115.3165 647.487251,116.7815 645.600251,118.2125 C643.710251,119.6465 641.351251,120.8345 638.519251,121.7775 C635.687251,122.7205 632.447251,123.1935 628.802251,123.1935 L628.802251,123.1935 Z" id="Fill-15" fill="#414042"></path>
            <g id="Group-19" transform="translate(53.7776, 53.7788)">
                <mask id="mask-2" fill="white">
                    <use xlink:href="#path-1"></use>
                </mask>
                <g id="Clip-18"></g>
                <path d="M87.996,0 L72.014,0 C70.466,0 68.919,0.05 67.391,0.149 C61.816,34.614 34.613,61.816 0.15,67.381 C0.05,68.908 -1.42108547e-14,70.456 -1.42108547e-14,72.014 L-1.42108547e-14,87.996 C-1.42108547e-14,97.451 3.83,106.002 10.02,112.202 C16.389,118.561 25.239,122.43 34.99,122.212 C53.711,121.805 68.452,106.032 68.452,87.312 L68.452,68.452 L87.996,68.452 C106.905,68.452 122.222,53.125 122.222,34.226 C122.222,15.328 106.905,0 87.996,0" id="Fill-17" fill="#AF3EFF" mask="url(#mask-2)"></path>
            </g>
            <path d="M121.168851,53.928 C121.872851,49.662 122.229851,45.277 122.229851,40.803 L122.229851,34.226 C122.229851,24.772 118.400851,16.22 112.200851,10.029 C106.010851,3.829 97.4488511,0 88.0038511,0 C69.0958511,0 53.7778511,15.327 53.7778511,34.226 L53.7778511,53.779 L34.2248511,53.779 C24.7708511,53.779 16.2188511,57.609 10.0288511,63.799 C3.64885106,70.168 -0.210148938,79.037 0.00885106153,88.809 C0.434851062,107.509 16.1988511,122.221 34.8988511,122.221 L40.8118511,122.221 C45.2758511,122.221 49.6608511,121.865 53.9268511,121.16 C56.2188511,85.078 85.0868511,56.209 121.168851,53.928" id="Fill-20" fill="#3491F7"></path>
            <path d="M121.168851,53.928 C85.0868511,56.209 56.2188511,85.078 53.9268511,121.16 C88.3908511,115.595 115.593851,88.392 121.168851,53.928" id="Fill-22" fill="#2423F7"></path>
        </g>
    </g>
</svg>